<?xml version="1.0" standalone="no"?>
<!DOCTYPE svg PUBLIC "-//W3C//DTD SVG 20010904//EN"
 "http://www.w3.org/TR/2001/REC-SVG-20010904/DTD/svg10.dtd">
<svg version="1.0" xmlns="http://www.w3.org/2000/svg"
 width="512.000000pt" height="512.000000pt" viewBox="0 0 512.000000 512.000000"
 preserveAspectRatio="xMidYMid meet">
<metadata>
Created by potrace 1.11, written by Peter Selinger 2001-2013
</metadata>
<g transform="translate(0.000000,512.000000) scale(0.100000,-0.100000)"
fill="#000000" stroke="none">
<path d="M2450 5114 c-344 -28 -563 -74 -810 -171 -842 -330 -1435 -1055
-1597 -1953 -25 -134 -27 -166 -27 -430 0 -264 2 -296 27 -430 118 -654 460
-1215 982 -1610 134 -101 253 -173 420 -255 632 -310 1373 -343 2030 -90 340
131 631 321 890 580 625 624 881 1503 690 2360 -134 598 -474 1124 -969 1494
-290 217 -644 378 -991 449 -195 41 -504 67 -645 56z m-360 -1329 c179 -58
324 -157 439 -300 l32 -40 36 45 c132 163 316 274 521 317 95 19 307 13 397
-12 418 -116 695 -522 647 -949 -49 -438 -428 -967 -1087 -1516 -234 -195
-497 -385 -520 -376 -48 18 -338 234 -540 402 -164 136 -526 497 -634 632
-302 376 -449 725 -426 1010 28 364 265 669 606 781 107 35 147 40 299 37 126
-3 156 -7 230 -31z"/>
</g>
</svg>
