<?xml version="1.0" standalone="no"?>
<!DOCTYPE svg PUBLIC "-//W3C//DTD SVG 20010904//EN"
 "http://www.w3.org/TR/2001/REC-SVG-20010904/DTD/svg10.dtd">
<svg version="1.0" xmlns="http://www.w3.org/2000/svg"
 width="1826.000000pt" height="1826.000000pt" viewBox="0 0 1826.000000 1826.000000"
 preserveAspectRatio="xMidYMid meet">
<metadata>
Created by potrace 1.11, written by Peter Selinger 2001-2013
</metadata>
<g transform="translate(0.000000,1826.000000) scale(0.100000,-0.100000)"
fill="#000000" stroke="none">
<path d="M8600 18239 c-1638 -97 -3203 -625 -4555 -1537 -483 -325 -879 -649
-1299 -1062 -423 -415 -760 -814 -1098 -1295 -1504 -2145 -2003 -4872 -1361
-7440 423 -1694 1332 -3236 2616 -4436 1988 -1859 4670 -2727 7382 -2388 2284
285 4381 1435 5868 3219 714 856 1283 1879 1637 2940 621 1860 623 3908 6
5765 -393 1181 -1006 2242 -1844 3190 -159 180 -617 635 -792 787 -624 543
-1243 959 -1957 1316 -1103 552 -2296 868 -3558 942 -196 11 -846 11 -1045 -1z
m-1586 -4648 c651 -102 1233 -390 1700 -841 135 -131 261 -274 356 -404 l64
-89 21 28 c460 639 1060 1055 1790 1240 269 69 406 86 715 92 292 6 447 -6
680 -53 1214 -242 2186 -1194 2449 -2400 57 -261 66 -352 66 -669 0 -303 -5
-368 -51 -610 -274 -1445 -1504 -3135 -3579 -4917 -603 -519 -1366 -1105
-1953 -1502 l-131 -89 -118 78 c-513 341 -1236 890 -1823 1384 -1895 1596
-3138 3154 -3589 4497 -152 454 -208 805 -198 1237 14 576 161 1072 465 1567
497 808 1342 1346 2302 1465 180 22 653 14 834 -14z"/>
</g>
</svg>
